<?xml version="1.0" encoding="utf-8"?>
<!-- Generator: Adobe Illustrator 25.1.0, SVG Export Plug-In . SVG Version: 6.00 Build 0)  -->
<svg version="1.1" id="Layer_1" xmlns="http://www.w3.org/2000/svg" xmlns:xlink="http://www.w3.org/1999/xlink" x="0px" y="0px"
	 viewBox="0 0 48 48" style="enable-background:new 0 0 48 48;" xml:space="preserve">
<style type="text/css">
	.st0{fill:#D41216;}
</style>
<path class="st0" d="M13.2,27.8h1.2v-7.6h-0.9l-2.2,1.6l0.6,1l1.2-0.9L13.2,27.8z M16.1,27.8h5v-1.1h-3.3v-0.1l2-2
	c0.4-0.4,0.7-0.8,0.9-1.2c0.2-0.4,0.3-0.8,0.3-1.2c0-0.7-0.2-1.2-0.7-1.6s-1-0.6-1.7-0.6c-0.6,0-1.1,0.2-1.5,0.5
	c-0.4,0.3-0.7,0.7-0.9,1.2l1,0.5c0.1-0.3,0.3-0.6,0.5-0.8c0.2-0.2,0.5-0.2,0.9-0.2c0.4,0,0.7,0.1,0.9,0.3s0.3,0.4,0.3,0.8
	c0,0.4-0.3,0.9-0.9,1.5l-2.8,2.9L16.1,27.8z M23.2,27.8c0.3,0,0.5-0.1,0.6-0.2c0.2-0.2,0.2-0.4,0.2-0.6s-0.1-0.5-0.2-0.6
	c-0.2-0.2-0.4-0.2-0.6-0.2s-0.5,0.1-0.6,0.2c-0.2,0.2-0.2,0.4-0.2,0.6s0.1,0.5,0.2,0.6C22.7,27.7,22.9,27.8,23.2,27.8z M23.2,23.7
	c0.3,0,0.5-0.1,0.6-0.2c0.2-0.2,0.2-0.4,0.2-0.6s-0.1-0.5-0.2-0.6c-0.2-0.2-0.4-0.2-0.6-0.2c-0.3,0-0.5,0.1-0.6,0.2
	c-0.2,0.2-0.2,0.4-0.2,0.6s0.1,0.5,0.2,0.6C22.7,23.7,22.9,23.7,23.2,23.7z M27.8,28c0.8,0,1.4-0.2,1.9-0.6c0.5-0.4,0.7-1,0.7-1.6
	c0-0.5-0.1-0.9-0.4-1.2c-0.2-0.3-0.6-0.6-1-0.7v0c0.3-0.2,0.6-0.4,0.8-0.7s0.3-0.6,0.3-1c0-0.6-0.2-1.1-0.7-1.5
	c-0.5-0.4-1-0.6-1.7-0.6c-0.6,0-1.1,0.1-1.5,0.4c-0.4,0.3-0.7,0.7-0.9,1.2l1.1,0.5c0.1-0.3,0.3-0.5,0.5-0.7c0.2-0.2,0.5-0.2,0.8-0.2
	c0.4,0,0.6,0.1,0.9,0.3c0.2,0.2,0.3,0.4,0.3,0.7c0,0.3-0.1,0.6-0.4,0.8c-0.3,0.2-0.6,0.3-0.9,0.3h-0.6v1.1h0.6
	c0.5,0,0.8,0.1,1.1,0.3c0.2,0.2,0.4,0.5,0.4,0.8s-0.1,0.7-0.4,0.9c-0.3,0.2-0.6,0.4-1,0.4c-0.4,0-0.7-0.1-0.9-0.3s-0.4-0.5-0.5-1
	L25.1,26c0.2,0.6,0.5,1.1,1,1.5C26.5,27.8,27.1,28,27.8,28z M34,28c0.7,0,1.4-0.2,1.9-0.8s0.8-1.1,0.8-1.9c0-0.7-0.2-1.2-0.7-1.7
	s-1-0.7-1.7-0.7c-0.1,0-0.3,0.1-0.8,0.2l0,0l1.8-2.4l-1-0.7l-2,2.8c-0.4,0.6-0.7,1-0.8,1.4c-0.1,0.4-0.2,0.7-0.2,1
	c0,0.8,0.3,1.4,0.8,2C32.6,27.7,33.2,28,34,28z M34,26.8c-0.4,0-0.7-0.1-1-0.4s-0.4-0.6-0.4-1c0-0.4,0.1-0.7,0.4-1s0.6-0.4,1-0.4
	c0.4,0,0.7,0.1,1,0.4c0.3,0.3,0.4,0.6,0.4,1c0,0.4-0.1,0.7-0.4,1C34.7,26.7,34.4,26.8,34,26.8z M24,44c-2.7,0-5.3-0.5-7.8-1.6
	c-2.4-1-4.6-2.5-6.4-4.3s-3.2-3.9-4.3-6.4S4,26.7,4,24s0.5-5.3,1.6-7.8s2.5-4.6,4.3-6.4s3.9-3.2,6.4-4.3S21.3,4,24,4
	s5.3,0.5,7.8,1.6s4.6,2.5,6.4,4.3s3.2,3.9,4.3,6.4c1.1,2.4,1.6,5,1.6,7.8s-0.5,5.3-1.6,7.8c-1,2.4-2.5,4.6-4.3,6.4s-3.9,3.2-6.4,4.3
	C29.3,43.5,26.7,44,24,44z M24,41c4.7,0,8.7-1.7,12-5s5-7.3,5-12s-1.7-8.7-5-12s-7.3-5-12-5s-8.7,1.7-12,5s-5,7.3-5,12s1.7,8.7,5,12
	S19.3,41,24,41z"/>
</svg>
